name analog
datacolumns 19
datarows 27
range 0.4905 0.5035000000000001
endheader
time	ground_force_vx	ground_force_vy	ground_force_vz	ground_force_px	ground_force_py	ground_force_pz	l_ground_force_vx	l_ground_force_vy	l_ground_force_vz	l_ground_force_px	l_ground_force_py	l_ground_force_pz	ground_torque_x	ground_torque_y	ground_torque_z	l_ground_torque_x	l_ground_torque_y	l_ground_torque_z
0.4905	-0.0	-0.0	-0.0	0.5809614658355713	10.378804206848145	-761.847900390625	-0.0	-0.0	-0.0	-34.95054244995117	16.262958526611328	73.75929260253906	-0.0	-0.0	-0.0	-0.0	-0.0	-0.0
0.491	-0.0	-0.0	-0.0	-0.7846488952636719	8.50722599029541	-765.04931640625	-0.0	-0.0	-0.0	-34.991050720214844	15.76610279083252	74.88651275634766	-0.0	-0.0	-0.0	-0.0	-0.0	-0.0
0.4915	-0.0	-0.0	-0.0	-1.455052375793457	6.552635669708252	-767.7887573242188	-0.0	-0.0	-0.0	-34.67575454711914	15.85597038269043	75.93956756591797	-0.0	-0.0	-0.0	-0.0	-0.0	-0.0
0.492	-0.0	-0.0	-0.0	-1.8457741737365725	4.441428661346436	-770.7481079101562	-0.0	-0.0	-0.0	-34.82696914672852	16.18791389465332	75.6972885131836	-0.0	-0.0	-0.0	-0.0	-0.0	-0.0
0.4925	-0.0	-0.0	-0.0	-1.365766525268555	3.338165283203125	-772.2699584960938	-0.0	-0.0	-0.0	-34.86121368408203	15.952370643615724	75.8056640625	-0.0	-0.0	-0.0	-0.0	-0.0	-0.0
0.493	-0.0	-0.0	-0.0	-0.4672162532806396	2.255828857421875	-774.1195678710938	-0.0	-0.0	-0.0	-34.7582893371582	16.01459503173828	76.04844665527344	-0.0	-0.0	-0.0	-0.0	-0.0	-0.0
0.4935	-0.0	-0.0	-0.0	-0.0551117360591888	1.6384153366088867	-777.3231201171875	-0.0	-0.0	-0.0	-34.799346923828125	16.298294067382812	75.4547119140625	-0.0	-0.0	-0.0	-0.0	-0.0	-0.0
0.494	-0.0	-0.0	-0.0	0.1575587838888168	1.4810733795166016	-777.6758422851562	-0.0	-0.0	-0.0	-34.7718505859375	16.132217407226562	75.103759765625	-0.0	-0.0	-0.0	-0.0	-0.0	-0.0
0.4945	-0.0	-0.0	-0.0	-0.0684280171990394	1.357719898223877	-778.24658203125	-0.0	-0.0	-0.0	-34.91627883911133	16.083999633789062	76.26441192626953	-0.0	-0.0	-0.0	-0.0	-0.0	-0.0
0.495	-0.0	-0.0	-0.0	-0.2676315307617187	2.1459522247314453	-777.8109741210938	-0.0	-0.0	-0.0	-34.77904510498047	16.076969146728516	76.1566162109375	-0.0	-0.0	-0.0	-0.0	-0.0	-0.0
0.4955	-0.0	-0.0	-0.0	-0.027422884479165	2.934367656707764	-777.2680053710938	-0.0	-0.0	-0.0	-34.57851791381836	16.077007293701172	75.6412353515625	-0.0	-0.0	-0.0	-0.0	-0.0	-0.0
0.496	-0.0	-0.0	-0.0	-0.2058269083499908	3.8395938873291016	-774.9575805664062	-0.0	-0.0	-0.0	-35.04033660888672	16.209232330322266	75.8056640625	-0.0	-0.0	-0.0	-0.0	-0.0	-0.0
0.4965	-0.0	-0.0	-0.0	0.1510528326034546	4.3744893074035645	-773.082763671875	-0.0	-0.0	-0.0	-34.7794189453125	15.807153701782228	76.1566162109375	-0.0	-0.0	-0.0	-0.0	-0.0	-0.0
0.497	-0.0	-0.0	-0.0	-0.1655284464359283	5.395223617553711	-771.4246215820312	-0.0	-0.0	-0.0	-35.07525634765625	16.382049560546875	76.1566162109375	-0.0	-0.0	-0.0	-0.0	-0.0	-0.0
0.4975	-0.0	-0.0	-0.0	-0.0964729860424995	6.266419410705566	-769.1177978515625	-0.0	-0.0	-0.0	-34.799346923828125	16.21436309814453	74.47920227050781	-0.0	-0.0	-0.0	-0.0	-0.0	-0.0
0.498	-0.0	-0.0	-0.0	-0.3420909643173218	6.390135288238525	-768.7940063476562	-0.0	-0.0	-0.0	-34.8811149597168	15.979449272155762	74.96665954589844	-0.0	-0.0	-0.0	-0.0	-0.0	-0.0
0.4985	-0.0	-0.0	-0.0	-0.0272406451404094	7.068517684936523	-765.8612670898438	-0.0	-0.0	-0.0	-34.853782653808594	16.14361572265625	76.61434936523438	-0.0	-0.0	-0.0	-0.0	-0.0	-0.0
0.499	-0.0	-0.0	-0.0	-0.1739557385444641	7.7044358253479	-763.6828002929688	-0.0	-0.0	-0.0	-34.75636291503906	16.22187614440918	75.36177062988281	-0.0	-0.0	-0.0	-0.0	-0.0	-0.0
0.4995	-0.0	-0.0	-0.0	-0.0271873101592063	8.424942016601562	-760.9177856445312	-0.0	-0.0	-0.0	-34.82651138305664	16.347152709960938	75.48595428466797	-0.0	-0.0	-0.0	-0.0	-0.0	-0.0
0.5	-0.0	-0.0	-0.0	0.1085985004901886	9.548568725585938	-758.7994384765625	-0.0	-0.0	-0.0	-34.853599548339844	15.979188919067385	75.2735595703125	-0.0	-0.0	-0.0	-0.0	-0.0	-0.0
0.5005000000000001	-0.0	-0.0	-0.0	0.1084477752447128	9.653170585632324	-753.9006958007812	-0.0	-0.0	-0.0	-34.70988464355469	16.249021530151367	75.87979888916016	-0.0	-0.0	-0.0	-0.0	-0.0	-0.0
0.501	-0.0	-0.0	-0.0	0.4460525512695312	10.951811790466309	-750.1097412109375	-0.0	-0.0	-0.0	-35.01357650756836	16.050113677978516	75.911865234375	-0.0	-0.0	-0.0	-0.0	-0.0	-0.0
0.5015000000000001	-0.0	-0.0	-0.0	0.5272219181060791	11.908408164978027	-746.5905151367188	-0.0	-0.0	-0.0	-34.807701110839844	16.167346954345703	76.36872863769531	-0.0	-0.0	-0.0	-0.0	-0.0	-0.0
0.502	-0.0	-0.0	-0.0	0.8650863170623779	11.85434341430664	-744.9957885742188	-0.0	-0.0	-0.0	-34.88880157470703	16.34732437133789	76.26251983642578	-0.0	-0.0	-0.0	-0.0	-0.0	-0.0
0.5025000000000001	-0.0	-0.0	-0.0	0.4354499578475952	11.508415222167969	-741.7428588867188	-0.0	-0.0	-0.0	-34.97826385498047	15.924625396728516	75.00350952148438	-0.0	-0.0	-0.0	-0.0	-0.0	-0.0
0.503	-0.0	-0.0	-0.0	0.3754943013191223	11.835707664489746	-738.638916015625	-0.0	-0.0	-0.0	-34.745460510253906	16.077468872070312	75.91136169433594	-0.0	-0.0	-0.0	-0.0	-0.0	-0.0
0.5035000000000001	-0.0	-0.0	-0.0	0.0353544950485229	11.195107460021973	-734.9609375	-0.0	-0.0	-0.0	-34.8437385559082	16.07750701904297	75.20931243896484	-0.0	-0.0	-0.0	-0.0	-0.0	-0.0
